<svg id="eLuNHOCawsh1" xmlns="http://www.w3.org/2000/svg" xmlns:xlink="http://www.w3.org/1999/xlink" viewBox="0 0 300 300" shape-rendering="geometricPrecision" text-rendering="geometricPrecision"><g transform="translate(.000001 0)"><polygon points="0,-86.839872 25.521598,-35.127466 82.589626,-26.834996 41.294813,13.417498 51.043196,70.254933 0,43.419936 -51.043196,70.254933 -41.294813,13.417498 -82.589626,-26.834996 -25.521598,-35.127466 0,-86.839872" transform="translate(212.310385 224.03734)" fill="#d2dbed" stroke-width="0"/></g><polygon points="0,-71.703024 21.07299,-29.004482 68.193628,-22.157453 34.096814,11.078726 42.14598,58.008965 0,35.851512 -42.14598,58.008965 -34.096814,11.078726 -68.193628,-22.157453 -21.07299,-29.004482 0,-71.703024" transform="translate(123.395566 124.62077)" fill="#d2dbed" stroke-width="0"/><polygon points="0,-35.497667 10.432503,-14.359108 33.760288,-10.969382 16.880144,5.484691 20.865005,28.718216 0,17.748834 -20.865005,28.718216 -16.880144,5.484691 -33.760288,-10.969382 -10.432503,-14.359108 0,-35.497667" transform="translate(55.201938 63.710618)" fill="#d2dbed" stroke-width="0"/></svg>
